{
  "accessors": [
    {
      "bufferView": 2,
      "componentType": 5126,
      "count": 509,
      "max": [
        114.7626953125,
        26.65262222290039,
        54.56721496582031
      ],
      "min": [
        -82.37266540527344,
        0.8398709893226624,
        -54.50202178955078
      ],
      "type": "VEC3"
    },
    {
      "bufferView": 2,
      "byteOffset": 6108,
      "componentType": 5126,
      "count": 509,
      "max": [
        1.0,
        1.0,
        0.9992841482162476
      ],
      "min": [
        -1.0,
        -1.0,
        -0.9987828731536865
      ],
      "type": "VEC3"
    },
    {
      "bufferView": 3,
      "componentType": 5126,
      "count": 509,
      "max": [
        1.0,
        1.0,
        0.9998647570610046,
        1.0
      ],
      "min": [
        -1.0,
        -0.9987127184867859,
        -1.0,
        1.0
      ],
      "type": "VEC4"
    },
    {
      "bufferView": 1,
      "componentType": 5126,
      "count": 509,
      "max": [
        0.9845560193061829,
        0.9960939884185791
      ],
      "min": [
        0.0039059999398887157,
        0.0039059999398887157
      ],
      "type": "VEC2"
    },
    {
      "bufferView": 0,
      "componentType": 5125,
      "count": 2106,
      "type": "SCALAR"
    },
    {
      "bufferView": 2,
      "byteOffset": 12216,
      "componentType": 5126,
      "count": 796,
      "max": [
        182.45779418945313,
        18.477231979370117,
        183.89065551757813
      ],
      "min": [
        -85.57917022705078,
        0.5452650189399719,
        77.5989990234375
      ],
      "type": "VEC3"
    },
    {
      "bufferView": 2,
      "byteOffset": 21768,
      "componentType": 5126,
      "count": 796,
      "max": [
        1.0,
        1.0,
        1.0
      ],
      "min": [
        -1.0,
        -1.0,
        -1.0
      ],
      "type": "VEC3"
    },
    {
      "bufferView": 3,
      "byteOffset": 8144,
      "componentType": 5126,
      "count": 796,
      "max": [
        1.0,
        1.0,
        1.0,
        1.0
      ],
      "min": [
        -1.0,
        -1.0,
        -1.0,
        1.0
      ],
      "type": "VEC4"
    },
    {
      "bufferView": 1,
      "byteOffset": 4072,
      "componentType": 5126,
      "count": 796,
      "max": [
        0.9931309819221497,
        0.9960939884185791
      ],
      "min": [
        0.007081999909132719,
        0.0039090001955628395
      ],
      "type": "VEC2"
    },
    {
      "bufferView": 0,
      "byteOffset": 8424,
      "componentType": 5125,
      "count": 2958,
      "type": "SCALAR"
    }
  ],
  "asset": {
    "extras": {
      "author": "Tiago Lopes (https://sketchfab.com/drobluda)",
      "license": "CC-BY-4.0 (http://creativecommons.org/licenses/by/4.0/)",
      "source": "https://sketchfab.com/3d-models/old-lock-and-key-4db4428ca1944142a5185b0223474631",
      "title": "Old Lock and Key"
    },
    "generator": "Sketchfab-14.32.1",
    "version": "2.0"
  },
  "bufferViews": [
    {
      "buffer": 0,
      "byteLength": 20256,
      "name": "floatBufferViews",
      "target": 34963
    },
    {
      "buffer": 0,
      "byteLength": 10440,
      "byteOffset": 20256,
      "byteStride": 8,
      "name": "floatBufferViews",
      "target": 34962
    },
    {
      "buffer": 0,
      "byteLength": 31320,
      "byteOffset": 30696,
      "byteStride": 12,
      "name": "floatBufferViews",
      "target": 34962
    },
    {
      "buffer": 0,
      "byteLength": 20880,
      "byteOffset": 62016,
      "byteStride": 16,
      "name": "floatBufferViews",
      "target": 34962
    }
  ],
  "buffers": [
    {
      "byteLength": 82896,
      "uri": "scene.bin"
    }
  ],
  "images": [
    {
      "uri": "textures/lambert1_baseColor.jpeg"
    },
    {
      "uri": "textures/lambert1_metallicRoughness.png"
    },
    {
      "uri": "textures/lambert1_normal.png"
    },
    {
      "uri": "textures/lambert2_baseColor.jpeg"
    },
    {
      "uri": "textures/lambert2_metallicRoughness.png"
    },
    {
      "uri": "textures/lambert2_normal.png"
    }
  ],
  "materials": [
    {
      "doubleSided": true,
      "name": "lambert1",
      "normalTexture": {
        "index": 2
      },
      "occlusionTexture": {
        "index": 1
      },
      "pbrMetallicRoughness": {
        "baseColorTexture": {
          "index": 0
        },
        "metallicRoughnessTexture": {
          "index": 1
        }
      }
    },
    {
      "doubleSided": true,
      "name": "lambert2",
      "normalTexture": {
        "index": 5
      },
      "occlusionTexture": {
        "index": 4
      },
      "pbrMetallicRoughness": {
        "baseColorTexture": {
          "index": 3
        },
        "metallicRoughnessTexture": {
          "index": 4
        }
      }
    }
  ],
  "meshes": [
    {
      "name": "defaultMaterial",
      "primitives": [
        {
          "attributes": {
            "NORMAL": 1,
            "POSITION": 0,
            "TANGENT": 2,
            "TEXCOORD_0": 3
          },
          "indices": 4,
          "material": 1,
          "mode": 4
        }
      ]
    },
    {
      "name": "defaultMaterial",
      "primitives": [
        {
          "attributes": {
            "NORMAL": 6,
            "POSITION": 5,
            "TANGENT": 7,
            "TEXCOORD_0": 8
          },
          "indices": 9,
          "material": 0,
          "mode": 4
        }
      ]
    }
  ],
  "nodes": [
    {
      "children": [
        1
      ],
      "matrix": [
        1.0,
        0.0,
        0.0,
        0.0,
        0.0,
        2.220446049250313e-16,
        -1.0,
        0.0,
        0.0,
        1.0,
        2.220446049250313e-16,
        0.0,
        0.0,
        0.0,
        0.0,
        1.0
      ],
      "name": "Sketchfab_model"
    },
    {
      "children": [
        2,
        5
      ],
      "matrix": [
        1.0,
        0.0,
        0.0,
        0.0,
        0.0,
        -4.371139006309477e-08,
        0.999999999999999,
        0.0,
        0.0,
        -0.999999999999999,
        -4.371139006309477e-08,
        0.0,
        0.0,
        0.0,
        0.0,
        1.0
      ],
      "name": "Collada visual scene group"
    },
    {
      "children": [
        3
      ],
      "name": "locker"
    },
    {
      "children": [
        4
      ],
      "name": "locker_low"
    },
    {
      "mesh": 0,
      "name": "defaultMaterial"
    },
    {
      "children": [
        6
      ],
      "matrix": [
        0.677003,
        0.0,
        0.0,
        0.0,
        0.0,
        0.677003,
        0.0,
        0.0,
        0.0,
        0.0,
        0.677003,
        0.0,
        0.0,
        0.0,
        46.267895,
        1.0
      ],
      "name": "key"
    },
    {
      "children": [
        7
      ],
      "matrix": [
        1.0,
        0.0,
        0.0,
        0.0,
        0.0,
        1.0,
        0.0,
        0.0,
        0.0,
        0.0,
        1.0,
        0.0,
        -15.674634,
        0.0,
        -46.763493,
        1.0
      ],
      "name": "key_low"
    },
    {
      "mesh": 1,
      "name": "defaultMaterial"
    }
  ],
  "samplers": [
    {
      "magFilter": 9729,
      "minFilter": 9987,
      "wrapS": 10497,
      "wrapT": 10497
    }
  ],
  "scene": 0,
  "scenes": [
    {
      "name": "Sketchfab_Scene",
      "nodes": [
        0
      ]
    }
  ],
  "textures": [
    {
      "sampler": 0,
      "source": 0
    },
    {
      "sampler": 0,
      "source": 1
    },
    {
      "sampler": 0,
      "source": 2
    },
    {
      "sampler": 0,
      "source": 3
    },
    {
      "sampler": 0,
      "source": 4
    },
    {
      "sampler": 0,
      "source": 5
    }
  ]
}
