{
  "accessors": [
    {
      "bufferView": 2,
      "componentType": 5126,
      "count": 254,
      "max": [
        1.2777299880981445,
        0.8733000755310059,
        1.3829846382141113
      ],
      "min": [
        -0.9180723428726196,
        -1.3425179719924927,
        0.1272190809249878
      ],
      "type": "VEC3"
    },
    {
      "bufferView": 2,
      "byteOffset": 3048,
      "componentType": 5126,
      "count": 254,
      "max": [
        0.9807872772216797,
        0.9807868003845215,
        1.7415422348676657e-07
      ],
      "min": [
        -0.9807879328727722,
        -0.980786144733429,
        -0.940562903881073
      ],
      "type": "VEC3"
    },
    {
      "bufferView": 3,
      "componentType": 5126,
      "count": 254,
      "max": [
        0.9849316477775574,
        0.9843093752861023,
        1.0,
        1.0
      ],
      "min": [
        -0.7084062099456787,
        -0.7084099054336548,
        -1.0,
        1.0
      ],
      "type": "VEC4"
    },
    {
      "bufferView": 1,
      "componentType": 5126,
      "count": 254,
      "max": [
        0.9704412817955017,
        1.0
      ],
      "min": [
        0.0,
        -5.7755218385580065e-09
      ],
      "type": "VEC2"
    },
    {
      "bufferView": 1,
      "byteOffset": 2032,
      "componentType": 5126,
      "count": 254,
      "max": [
        0.9704412817955017,
        1.0
      ],
      "min": [
        0.0,
        -5.7755218385580065e-09
      ],
      "type": "VEC2"
    },
    {
      "bufferView": 1,
      "byteOffset": 4064,
      "componentType": 5126,
      "count": 254,
      "max": [
        0.9704412817955017,
        1.0
      ],
      "min": [
        0.0,
        -5.7755218385580065e-09
      ],
      "type": "VEC2"
    },
    {
      "bufferView": 0,
      "componentType": 5125,
      "count": 768,
      "type": "SCALAR"
    },
    {
      "bufferView": 2,
      "byteOffset": 6096,
      "componentType": 5126,
      "count": 65532,
      "max": [
        1.351392388343811,
        1.1502641439437866,
        1.3166598081588745
      ],
      "min": [
        -1.371127724647522,
        -1.4924508333206177,
        0.047058165073394775
      ],
      "type": "VEC3"
    },
    {
      "bufferView": 2,
      "byteOffset": 792480,
      "componentType": 5126,
      "count": 65532,
      "max": [
        1.0,
        1.0,
        1.0
      ],
      "min": [
        -1.0,
        -0.9999915957450867,
        -0.995589554309845
      ],
      "type": "VEC3"
    },
    {
      "bufferView": 3,
      "byteOffset": 4064,
      "componentType": 5126,
      "count": 65532,
      "max": [
        0.996624231338501,
        0.8294617533683777,
        0.9999985098838806,
        1.0
      ],
      "min": [
        -0.999860405921936,
        -0.9999992251396179,
        -0.9996739029884338,
        1.0
      ],
      "type": "VEC4"
    },
    {
      "bufferView": 1,
      "byteOffset": 6096,
      "componentType": 5126,
      "count": 65532,
      "max": [
        0.6811021566390991,
        0.728345513343811
      ],
      "min": [
        -1.367939717056288e-08,
        -2.051909397948748e-08
      ],
      "type": "VEC2"
    },
    {
      "bufferView": 1,
      "byteOffset": 530352,
      "componentType": 5126,
      "count": 65532,
      "max": [
        0.6811021566390991,
        0.728345513343811
      ],
      "min": [
        -1.367939717056288e-08,
        -2.051909397948748e-08
      ],
      "type": "VEC2"
    },
    {
      "bufferView": 1,
      "byteOffset": 1054608,
      "componentType": 5126,
      "count": 65532,
      "max": [
        0.6811021566390991,
        0.728345513343811
      ],
      "min": [
        -1.367939717056288e-08,
        -2.051909397948748e-08
      ],
      "type": "VEC2"
    },
    {
      "bufferView": 0,
      "byteOffset": 3072,
      "componentType": 5125,
      "count": 389754,
      "type": "SCALAR"
    },
    {
      "bufferView": 2,
      "byteOffset": 1578864,
      "componentType": 5126,
      "count": 659,
      "max": [
        -0.9011749625205994,
        -0.631841778755188,
        0.9230338931083679
      ],
      "min": [
        -1.0943244695663452,
        -1.1171824932098389,
        0.11948508024215698
      ],
      "type": "VEC3"
    },
    {
      "bufferView": 2,
      "byteOffset": 1586772,
      "componentType": 5126,
      "count": 659,
      "max": [
        0.029174048453569412,
        0.4908844828605652,
        0.9779632687568665
      ],
      "min": [
        -0.9951713681221008,
        -0.5373397469520569,
        -0.3661486506462097
      ],
      "type": "VEC3"
    },
    {
      "bufferView": 3,
      "byteOffset": 1052576,
      "componentType": 5126,
      "count": 659,
      "max": [
        0.39810869097709656,
        -0.7386316061019897,
        -0.2079026848077774,
        1.0
      ],
      "min": [
        -0.17397832870483398,
        -0.9776279926300049,
        -0.6512718200683594,
        1.0
      ],
      "type": "VEC4"
    },
    {
      "bufferView": 1,
      "byteOffset": 1578864,
      "componentType": 5126,
      "count": 659,
      "max": [
        0.6784001588821411,
        0.15028595924377441
      ],
      "min": [
        0.5372055172920227,
        -2.051909397948748e-08
      ],
      "type": "VEC2"
    },
    {
      "bufferView": 1,
      "byteOffset": 1584136,
      "componentType": 5126,
      "count": 659,
      "max": [
        0.6784001588821411,
        0.15028595924377441
      ],
      "min": [
        0.5372055172920227,
        -2.051909397948748e-08
      ],
      "type": "VEC2"
    },
    {
      "bufferView": 1,
      "byteOffset": 1589408,
      "componentType": 5126,
      "count": 659,
      "max": [
        0.6784001588821411,
        0.15028595924377441
      ],
      "min": [
        0.5372055172920227,
        -2.051909397948748e-08
      ],
      "type": "VEC2"
    },
    {
      "bufferView": 0,
      "byteOffset": 1562088,
      "componentType": 5125,
      "count": 3462,
      "type": "SCALAR"
    }
  ],
  "asset": {
    "extras": {
      "author": "AMMediaGames (https://sketchfab.com/AMMediaGames)",
      "license": "CC-BY-4.0 (http://creativecommons.org/licenses/by/4.0/)",
      "source": "https://sketchfab.com/3d-models/boxes-atticbasement-covered-with-dirty-sheet-850e0de73b0b49a198c6d0262ca7cf83",
      "title": "Boxes Attic/Basement Covered with dirty Sheet"
    },
    "generator": "Sketchfab-16.10.0",
    "version": "2.0"
  },
  "bufferViews": [
    {
      "buffer": 0,
      "byteLength": 1575936,
      "name": "floatBufferViews",
      "target": 34963
    },
    {
      "buffer": 0,
      "byteLength": 1594680,
      "byteOffset": 1575936,
      "byteStride": 8,
      "name": "floatBufferViews",
      "target": 34962
    },
    {
      "buffer": 0,
      "byteLength": 1594680,
      "byteOffset": 3170616,
      "byteStride": 12,
      "name": "floatBufferViews",
      "target": 34962
    },
    {
      "buffer": 0,
      "byteLength": 1063120,
      "byteOffset": 4765296,
      "byteStride": 16,
      "name": "floatBufferViews",
      "target": 34962
    }
  ],
  "buffers": [
    {
      "byteLength": 5828416,
      "uri": "scene.bin"
    }
  ],
  "extensionsUsed": [
    "KHR_materials_specular"
  ],
  "images": [
    {
      "uri": "textures/Material.001_baseColor.png"
    },
    {
      "uri": "textures/Material.001_metallicRoughness.png"
    },
    {
      "uri": "textures/Material.001_normal.png"
    }
  ],
  "materials": [
    {
      "doubleSided": true,
      "extensions": {
        "KHR_materials_specular": {
          "specularColorFactor": [
            1.0,
            1.0,
            1.0
          ],
          "specularFactor": 0.3
        }
      },
      "name": "Material.001",
      "normalTexture": {
        "index": 2
      },
      "pbrMetallicRoughness": {
        "baseColorTexture": {
          "index": 0
        },
        "metallicRoughnessTexture": {
          "index": 1
        }
      }
    }
  ],
  "meshes": [
    {
      "name": "Plane.001_Material.001_0",
      "primitives": [
        {
          "attributes": {
            "NORMAL": 1,
            "POSITION": 0,
            "TANGENT": 2,
            "TEXCOORD_0": 3,
            "TEXCOORD_1": 4,
            "TEXCOORD_2": 5
          },
          "indices": 6,
          "material": 0,
          "mode": 4
        }
      ]
    },
    {
      "name": "Plane.002_Material.001_0",
      "primitives": [
        {
          "attributes": {
            "NORMAL": 8,
            "POSITION": 7,
            "TANGENT": 9,
            "TEXCOORD_0": 10,
            "TEXCOORD_1": 11,
            "TEXCOORD_2": 12
          },
          "indices": 13,
          "material": 0,
          "mode": 4
        }
      ]
    },
    {
      "name": "Plane.002_Material.001_0",
      "primitives": [
        {
          "attributes": {
            "NORMAL": 15,
            "POSITION": 14,
            "TANGENT": 16,
            "TEXCOORD_0": 17,
            "TEXCOORD_1": 18,
            "TEXCOORD_2": 19
          },
          "indices": 20,
          "material": 0,
          "mode": 4
        }
      ]
    }
  ],
  "nodes": [
    {
      "children": [
        1
      ],
      "matrix": [
        1.0,
        0.0,
        0.0,
        0.0,
        0.0,
        2.220446049250313e-16,
        -1.0,
        0.0,
        0.0,
        1.0,
        2.220446049250313e-16,
        0.0,
        0.0,
        0.0,
        0.0,
        1.0
      ],
      "name": "Sketchfab_model"
    },
    {
      "children": [
        2
      ],
      "matrix": [
        0.009999999776482582,
        0.0,
        0.0,
        0.0,
        0.0,
        0.0,
        0.009999999776482582,
        0.0,
        0.0,
        -0.009999999776482582,
        0.0,
        0.0,
        0.0,
        0.0,
        0.0,
        1.0
      ],
      "name": "a0272edda96a46b681e5f7bc8f4cbf9a.fbx"
    },
    {
      "children": [
        3,
        5
      ],
      "name": "RootNode"
    },
    {
      "children": [
        4
      ],
      "matrix": [
        100.0,
        0.0,
        0.0,
        0.0,
        -0.0,
        -1.629206793918314e-05,
        -99.99999999999868,
        0.0,
        0.0,
        99.99999999999868,
        -1.629206793918314e-05,
        0.0,
        -17.732507705688477,
        67.78892517089844,
        4.576598644256592,
        1.0
      ],
      "name": "Plane.001"
    },
    {
      "mesh": 0,
      "name": "Plane.001_Material.001_0"
    },
    {
      "children": [
        6,
        7
      ],
      "matrix": [
        100.0,
        0.0,
        0.0,
        0.0,
        -0.0,
        -1.629206793918314e-05,
        -99.99999999999868,
        0.0,
        0.0,
        99.99999999999868,
        -1.629206793918314e-05,
        0.0,
        -3.6723289489746094,
        76.28269958496094,
        3.3672499656677246,
        1.0
      ],
      "name": "Plane.002"
    },
    {
      "mesh": 1,
      "name": "Plane.002_Material.001_0"
    },
    {
      "mesh": 2,
      "name": "Plane.002_Material.001_0"
    }
  ],
  "samplers": [
    {
      "magFilter": 9729,
      "minFilter": 9987,
      "wrapS": 10497,
      "wrapT": 10497
    }
  ],
  "scene": 0,
  "scenes": [
    {
      "name": "Sketchfab_Scene",
      "nodes": [
        0
      ]
    }
  ],
  "textures": [
    {
      "sampler": 0,
      "source": 0
    },
    {
      "sampler": 0,
      "source": 1
    },
    {
      "sampler": 0,
      "source": 2
    }
  ]
}
