{
  "accessors": [
    {
      "bufferView": 2,
      "componentType": 5126,
      "count": 146,
      "max": [
        0.032900258898735046,
        0.6674556732177734,
        0.9952338933944702
      ],
      "min": [
        -0.038481079041957855,
        0.596075713634491,
        0.8309224843978882
      ],
      "type": "VEC3"
    },
    {
      "bufferView": 2,
      "byteOffset": 1752,
      "componentType": 5126,
      "count": 146,
      "max": [
        0.9419779181480408,
        0.9419777989387512,
        1.0
      ],
      "min": [
        -0.9420338869094849,
        -0.9420340061187744,
        -1.0
      ],
      "type": "VEC3"
    },
    {
      "bufferView": 1,
      "componentType": 5126,
      "count": 146,
      "max": [
        0.6660929918289185,
        0.9306110143661499
      ],
      "min": [
        0.6450290083885193,
        0.9099429845809937
      ],
      "type": "VEC2"
    },
    {
      "bufferView": 0,
      "componentType": 5125,
      "count": 360,
      "type": "SCALAR"
    },
    {
      "bufferView": 2,
      "byteOffset": 3504,
      "componentType": 5126,
      "count": 282,
      "max": [
        0.07395728677511215,
        -0.009962126612663269,
        0.8016330003738403
      ],
      "min": [
        -0.0904296264052391,
        -0.0832568034529686,
        0.7300636172294617
      ],
      "type": "VEC3"
    },
    {
      "bufferView": 2,
      "byteOffset": 6888,
      "componentType": 5126,
      "count": 282,
      "max": [
        0.9999253749847412,
        0.995100200176239,
        0.9990996718406677
      ],
      "min": [
        -0.9973189830780029,
        -0.9903497099876404,
        -0.9981212019920349
      ],
      "type": "VEC3"
    },
    {
      "bufferView": 1,
      "byteOffset": 1168,
      "componentType": 5126,
      "count": 282,
      "max": [
        0.9994999766349792,
        -0.05169999971985817
      ],
      "min": [
        0.0005000000237487257,
        -0.9610000252723694
      ],
      "type": "VEC2"
    },
    {
      "bufferView": 0,
      "byteOffset": 1440,
      "componentType": 5125,
      "count": 615,
      "type": "SCALAR"
    },
    {
      "bufferView": 2,
      "byteOffset": 10272,
      "componentType": 5126,
      "count": 1685,
      "max": [
        0.12338940054178238,
        0.2151567041873932,
        1.0417929887771606
      ],
      "min": [
        -0.13423660397529602,
        -0.12273570150136948,
        0.11843980103731155
      ],
      "type": "VEC3"
    },
    {
      "bufferView": 2,
      "byteOffset": 30492,
      "componentType": 5126,
      "count": 1685,
      "max": [
        0.9996262788772583,
        0.9997810125350952,
        0.9999350905418396
      ],
      "min": [
        -0.9985153675079346,
        -0.9983723163604736,
        -0.9985572099685669
      ],
      "type": "VEC3"
    },
    {
      "bufferView": 1,
      "byteOffset": 3424,
      "componentType": 5126,
      "count": 1685,
      "max": [
        0.9980999827384949,
        -0.0004999638185836375
      ],
      "min": [
        0.00039999998989515007,
        -0.9994999766349792
      ],
      "type": "VEC2"
    },
    {
      "bufferView": 0,
      "byteOffset": 3900,
      "componentType": 5125,
      "count": 6567,
      "type": "SCALAR"
    },
    {
      "bufferView": 2,
      "byteOffset": 50712,
      "componentType": 5126,
      "count": 16,
      "max": [
        -0.03180970996618271,
        -0.05668868124485016,
        0.8796426057815552
      ],
      "min": [
        -0.06526503711938858,
        -0.07526137679815292,
        0.8639035820960999
      ],
      "type": "VEC3"
    },
    {
      "bufferView": 2,
      "byteOffset": 50904,
      "componentType": 5126,
      "count": 16,
      "max": [
        0.8450345993041992,
        -0.37691789865493774,
        0.41045549511909485
      ],
      "min": [
        -0.9185953736305237,
        -0.993712306022644,
        -0.13117903470993042
      ],
      "type": "VEC3"
    },
    {
      "bufferView": 1,
      "byteOffset": 16904,
      "componentType": 5126,
      "count": 16,
      "max": [
        0.9315000176429749,
        -0.179299995303154
      ],
      "min": [
        0.06849999725818634,
        -0.8206998705863953
      ],
      "type": "VEC2"
    },
    {
      "bufferView": 0,
      "byteOffset": 30168,
      "componentType": 5125,
      "count": 42,
      "type": "SCALAR"
    },
    {
      "bufferView": 2,
      "byteOffset": 51096,
      "componentType": 5126,
      "count": 15,
      "max": [
        0.056541960686445236,
        -0.05668868124485016,
        0.8795830011367798
      ],
      "min": [
        0.024354059249162674,
        -0.07526137679815292,
        0.8639035820960999
      ],
      "type": "VEC3"
    },
    {
      "bufferView": 2,
      "byteOffset": 51276,
      "componentType": 5126,
      "count": 15,
      "max": [
        0.9185957908630371,
        -0.3769170343875885,
        0.06477232277393341
      ],
      "min": [
        -0.7491961717605591,
        -0.9934045076370239,
        -0.13057821989059448
      ],
      "type": "VEC3"
    },
    {
      "bufferView": 1,
      "byteOffset": 17032,
      "componentType": 5126,
      "count": 15,
      "max": [
        0.9150999784469604,
        -0.1814001053571701
      ],
      "min": [
        0.08489999920129776,
        -0.8185998797416687
      ],
      "type": "VEC2"
    },
    {
      "bufferView": 0,
      "byteOffset": 30336,
      "componentType": 5125,
      "count": 39,
      "type": "SCALAR"
    },
    {
      "bufferView": 2,
      "byteOffset": 51456,
      "componentType": 5126,
      "count": 1141,
      "max": [
        0.41862478852272034,
        0.7735239863395691,
        1.133044958114624
      ],
      "min": [
        -0.3900300860404968,
        -0.26082590222358704,
        -0.027109500020742416
      ],
      "type": "VEC3"
    },
    {
      "bufferView": 2,
      "byteOffset": 65148,
      "componentType": 5126,
      "count": 1141,
      "max": [
        0.9998018741607666,
        0.9997512102127075,
        0.99998539686203
      ],
      "min": [
        -0.9997023940086365,
        -0.9998894929885864,
        -0.9997940063476563
      ],
      "type": "VEC3"
    },
    {
      "bufferView": 1,
      "byteOffset": 17152,
      "componentType": 5126,
      "count": 1141,
      "max": [
        0.9929839968681335,
        0.9951180219650269
      ],
      "min": [
        0.006486999802291393,
        0.005088984966278076
      ],
      "type": "VEC2"
    },
    {
      "bufferView": 0,
      "byteOffset": 30492,
      "componentType": 5125,
      "count": 2937,
      "type": "SCALAR"
    }
  ],
  "asset": {
    "extras": {
      "author": "Oliverdude31089 (https://sketchfab.com/Cooldude31089)",
      "license": "CC-BY-4.0 (http://creativecommons.org/licenses/by/4.0/)",
      "source": "https://sketchfab.com/3d-models/old-toilet-5682d84f1f6f4d7cbdbab28878cd8819",
      "title": "Old toilet"
    },
    "generator": "Sketchfab-15.49.0",
    "version": "2.0"
  },
  "bufferViews": [
    {
      "buffer": 0,
      "byteLength": 42240,
      "name": "floatBufferViews",
      "target": 34963
    },
    {
      "buffer": 0,
      "byteLength": 26280,
      "byteOffset": 42240,
      "byteStride": 8,
      "name": "floatBufferViews",
      "target": 34962
    },
    {
      "buffer": 0,
      "byteLength": 78840,
      "byteOffset": 68520,
      "byteStride": 12,
      "name": "floatBufferViews",
      "target": 34962
    }
  ],
  "buffers": [
    {
      "byteLength": 147360,
      "uri": "scene.bin"
    }
  ],
  "images": [
    {
      "uri": "textures/Material_baseColor.png"
    },
    {
      "uri": "textures/Material_1_baseColor.png"
    },
    {
      "uri": "textures/Material_2_baseColor.png"
    },
    {
      "uri": "textures/Material_3_baseColor.png"
    },
    {
      "uri": "textures/Material_4_baseColor.png"
    },
    {
      "uri": "textures/Material_5_baseColor.png"
    }
  ],
  "materials": [
    {
      "doubleSided": true,
      "name": "Material",
      "pbrMetallicRoughness": {
        "baseColorTexture": {
          "index": 0
        },
        "metallicFactor": 0.0,
        "roughnessFactor": 0.6
      }
    },
    {
      "doubleSided": true,
      "name": "Material_1",
      "pbrMetallicRoughness": {
        "baseColorTexture": {
          "index": 1
        },
        "metallicFactor": 0.0,
        "roughnessFactor": 0.6
      }
    },
    {
      "doubleSided": true,
      "name": "Material_2",
      "pbrMetallicRoughness": {
        "baseColorTexture": {
          "index": 2
        },
        "metallicFactor": 0.0,
        "roughnessFactor": 0.6
      }
    },
    {
      "doubleSided": true,
      "name": "Material_3",
      "pbrMetallicRoughness": {
        "baseColorTexture": {
          "index": 3
        },
        "metallicFactor": 0.0,
        "roughnessFactor": 0.6
      }
    },
    {
      "doubleSided": true,
      "name": "Material_4",
      "pbrMetallicRoughness": {
        "baseColorTexture": {
          "index": 4
        },
        "metallicFactor": 0.0,
        "roughnessFactor": 0.6
      }
    },
    {
      "doubleSided": true,
      "name": "Material_5",
      "pbrMetallicRoughness": {
        "baseColorTexture": {
          "index": 5
        },
        "metallicFactor": 0.0,
        "roughnessFactor": 0.6
      }
    }
  ],
  "meshes": [
    {
      "name": "Object_0",
      "primitives": [
        {
          "attributes": {
            "NORMAL": 1,
            "POSITION": 0,
            "TEXCOORD_0": 2
          },
          "indices": 3,
          "material": 0,
          "mode": 4
        }
      ]
    },
    {
      "name": "Object_1",
      "primitives": [
        {
          "attributes": {
            "NORMAL": 5,
            "POSITION": 4,
            "TEXCOORD_0": 6
          },
          "indices": 7,
          "material": 1,
          "mode": 4
        }
      ]
    },
    {
      "name": "Object_2",
      "primitives": [
        {
          "attributes": {
            "NORMAL": 9,
            "POSITION": 8,
            "TEXCOORD_0": 10
          },
          "indices": 11,
          "material": 2,
          "mode": 4
        }
      ]
    },
    {
      "name": "Object_3",
      "primitives": [
        {
          "attributes": {
            "NORMAL": 13,
            "POSITION": 12,
            "TEXCOORD_0": 14
          },
          "indices": 15,
          "material": 3,
          "mode": 4
        }
      ]
    },
    {
      "name": "Object_4",
      "primitives": [
        {
          "attributes": {
            "NORMAL": 17,
            "POSITION": 16,
            "TEXCOORD_0": 18
          },
          "indices": 19,
          "material": 4,
          "mode": 4
        }
      ]
    },
    {
      "name": "Object_5",
      "primitives": [
        {
          "attributes": {
            "NORMAL": 21,
            "POSITION": 20,
            "TEXCOORD_0": 22
          },
          "indices": 23,
          "material": 5,
          "mode": 4
        }
      ]
    }
  ],
  "nodes": [
    {
      "children": [
        1
      ],
      "matrix": [
        1.0,
        0.0,
        0.0,
        0.0,
        0.0,
        2.220446049250313e-16,
        -1.0,
        0.0,
        0.0,
        1.0,
        2.220446049250313e-16,
        0.0,
        0.0,
        0.0,
        0.0,
        1.0
      ],
      "name": "Sketchfab_model"
    },
    {
      "children": [
        2,
        3,
        4,
        5,
        6,
        7
      ],
      "name": "Old toilet.obj.cleaner.materialmerger.gles"
    },
    {
      "mesh": 0,
      "name": "Object_2"
    },
    {
      "mesh": 1,
      "name": "Object_3"
    },
    {
      "mesh": 2,
      "name": "Object_4"
    },
    {
      "mesh": 3,
      "name": "Object_5"
    },
    {
      "mesh": 4,
      "name": "Object_6"
    },
    {
      "mesh": 5,
      "name": "Object_7"
    }
  ],
  "samplers": [
    {
      "magFilter": 9729,
      "minFilter": 9987,
      "wrapS": 10497,
      "wrapT": 10497
    }
  ],
  "scene": 0,
  "scenes": [
    {
      "name": "Sketchfab_Scene",
      "nodes": [
        0
      ]
    }
  ],
  "textures": [
    {
      "sampler": 0,
      "source": 0
    },
    {
      "sampler": 0,
      "source": 1
    },
    {
      "sampler": 0,
      "source": 2
    },
    {
      "sampler": 0,
      "source": 3
    },
    {
      "sampler": 0,
      "source": 4
    },
    {
      "sampler": 0,
      "source": 5
    }
  ]
}
