{
  "accessors": [
    {
      "bufferView": 2,
      "componentType": 5126,
      "count": 7461,
      "max": [
        1.4170269966125488,
        1.2779276371002197,
        0.7931718230247498
      ],
      "min": [
        -0.6777279376983643,
        -1.277948260307312,
        -1.5182971954345703
      ],
      "type": "VEC3"
    },
    {
      "bufferView": 2,
      "byteOffset": 89532,
      "componentType": 5126,
      "count": 7461,
      "max": [
        1.0,
        1.0,
        1.0
      ],
      "min": [
        -1.0,
        -1.0,
        -1.0
      ],
      "type": "VEC3"
    },
    {
      "bufferView": 3,
      "componentType": 5126,
      "count": 7461,
      "max": [
        1.0,
        0.9999998211860657,
        1.0,
        1.0
      ],
      "min": [
        -1.0,
        -0.9999999403953552,
        -1.0,
        -1.0
      ],
      "type": "VEC4"
    },
    {
      "bufferView": 1,
      "componentType": 5126,
      "count": 7461,
      "max": [
        0.9827852845191956,
        1.0000001192092896
      ],
      "min": [
        0.05456332489848137,
        -7.031951909652889e-09
      ],
      "type": "VEC2"
    },
    {
      "bufferView": 0,
      "componentType": 5125,
      "count": 34956,
      "type": "SCALAR"
    },
    {
      "bufferView": 2,
      "byteOffset": 179064,
      "componentType": 5126,
      "count": 12084,
      "max": [
        9.641584396362305,
        1.6914852857589722,
        1.8699589967727661
      ],
      "min": [
        -0.8182569742202759,
        -1.6345829963684082,
        -0.26524412631988525
      ],
      "type": "VEC3"
    },
    {
      "bufferView": 2,
      "byteOffset": 324072,
      "componentType": 5126,
      "count": 12084,
      "max": [
        1.0,
        1.0,
        1.0
      ],
      "min": [
        -1.0,
        -1.0,
        -1.0
      ],
      "type": "VEC3"
    },
    {
      "bufferView": 3,
      "byteOffset": 119376,
      "componentType": 5126,
      "count": 12084,
      "max": [
        1.0,
        1.0,
        1.0,
        1.0
      ],
      "min": [
        -1.0,
        -1.0,
        -0.999999463558197,
        -1.0
      ],
      "type": "VEC4"
    },
    {
      "bufferView": 1,
      "byteOffset": 59688,
      "componentType": 5126,
      "count": 12084,
      "max": [
        0.9949988722801208,
        0.9911543726921082
      ],
      "min": [
        -1.8649901178946493e-08,
        -4.238603068529301e-08
      ],
      "type": "VEC2"
    },
    {
      "bufferView": 0,
      "byteOffset": 139824,
      "componentType": 5125,
      "count": 51963,
      "type": "SCALAR"
    },
    {
      "bufferView": 2,
      "byteOffset": 469080,
      "componentType": 5126,
      "count": 732,
      "max": [
        4.847450256347656,
        0.18887563049793243,
        1.723594069480896
      ],
      "min": [
        4.012762069702148,
        -0.1458629071712494,
        1.3888554573059082
      ],
      "type": "VEC3"
    },
    {
      "bufferView": 2,
      "byteOffset": 477864,
      "componentType": 5126,
      "count": 732,
      "max": [
        0.9350842237472534,
        0.9981402158737183,
        0.9981403946876526
      ],
      "min": [
        -0.993075430393219,
        -0.9981404542922974,
        -0.9981403946876526
      ],
      "type": "VEC3"
    },
    {
      "bufferView": 3,
      "byteOffset": 312720,
      "componentType": 5126,
      "count": 732,
      "max": [
        0.8459638953208923,
        0.9999999403953552,
        0.9999991059303284,
        1.0
      ],
      "min": [
        -0.8459436893463135,
        -0.9999960064888,
        -0.9999997615814209,
        1.0
      ],
      "type": "VEC4"
    },
    {
      "bufferView": 1,
      "byteOffset": 156360,
      "componentType": 5126,
      "count": 732,
      "max": [
        0.9904806613922119,
        0.9599630236625671
      ],
      "min": [
        0.06653866916894913,
        -2.4790690389409065e-08
      ],
      "type": "VEC2"
    },
    {
      "bufferView": 0,
      "byteOffset": 347676,
      "componentType": 5125,
      "count": 3036,
      "type": "SCALAR"
    }
  ],
  "asset": {
    "extras": {
      "author": "Evil Crumb (https://sketchfab.com/kittencublover9002)",
      "license": "CC-BY-4.0 (http://creativecommons.org/licenses/by/4.0/)",
      "source": "https://sketchfab.com/3d-models/rustic-sink-9004f61e76194c349c22065ce8beb6a5",
      "title": "Rustic Sink"
    },
    "generator": "Sketchfab-16.24.0",
    "version": "2.0"
  },
  "bufferViews": [
    {
      "buffer": 0,
      "byteLength": 359820,
      "name": "floatBufferViews",
      "target": 34963
    },
    {
      "buffer": 0,
      "byteLength": 162216,
      "byteOffset": 359820,
      "byteStride": 8,
      "name": "floatBufferViews",
      "target": 34962
    },
    {
      "buffer": 0,
      "byteLength": 486648,
      "byteOffset": 522036,
      "byteStride": 12,
      "name": "floatBufferViews",
      "target": 34962
    },
    {
      "buffer": 0,
      "byteLength": 324432,
      "byteOffset": 1008684,
      "byteStride": 16,
      "name": "floatBufferViews",
      "target": 34962
    }
  ],
  "buffers": [
    {
      "byteLength": 1333116,
      "uri": "tf.bin"
    }
  ],
  "images": [
    {
      "uri": "textures/Material_baseColor.png"
    },
    {
      "uri": "textures/Material_metallicRoughness.png"
    },
    {
      "uri": "textures/Material_normal.png"
    },
    {
      "uri": "textures/material_baseColor.png"
    },
    {
      "uri": "textures/material_metallicRoughness.png"
    },
    {
      "uri": "textures/material_normal.png"
    }
  ],
  "materials": [
    {
      "doubleSided": true,
      "name": "Material",
      "normalTexture": {
        "index": 2
      },
      "pbrMetallicRoughness": {
        "baseColorTexture": {
          "index": 0
        },
        "metallicRoughnessTexture": {
          "index": 1
        }
      }
    },
    {
      "doubleSided": true,
      "name": "material",
      "normalTexture": {
        "index": 5
      },
      "pbrMetallicRoughness": {
        "baseColorTexture": {
          "index": 3
        },
        "metallicRoughnessTexture": {
          "index": 4
        }
      }
    }
  ],
  "meshes": [
    {
      "name": "Cube_Material_0",
      "primitives": [
        {
          "attributes": {
            "NORMAL": 1,
            "POSITION": 0,
            "TANGENT": 2,
            "TEXCOORD_0": 3
          },
          "indices": 4,
          "material": 0,
          "mode": 4
        }
      ]
    },
    {
      "name": "NurbsPath_A_0",
      "primitives": [
        {
          "attributes": {
            "NORMAL": 6,
            "POSITION": 5,
            "TANGENT": 7,
            "TEXCOORD_0": 8
          },
          "indices": 9,
          "material": 1,
          "mode": 4
        }
      ]
    },
    {
      "name": "NurbsPath_Material_0",
      "primitives": [
        {
          "attributes": {
            "NORMAL": 11,
            "POSITION": 10,
            "TANGENT": 12,
            "TEXCOORD_0": 13
          },
          "indices": 14,
          "material": 0,
          "mode": 4
        }
      ]
    }
  ],
  "nodes": [
    {
      "children": [
        1
      ],
      "matrix": [
        1.0,
        0.0,
        0.0,
        0.0,
        0.0,
        2.220446049250313e-16,
        -1.0,
        0.0,
        0.0,
        1.0,
        2.220446049250313e-16,
        0.0,
        0.0,
        0.0,
        0.0,
        1.0
      ],
      "name": "Sketchfab_model"
    },
    {
      "children": [
        2
      ],
      "matrix": [
        0.009999999776482582,
        0.0,
        0.0,
        0.0,
        0.0,
        0.0,
        0.009999999776482582,
        0.0,
        0.0,
        -0.009999999776482582,
        0.0,
        0.0,
        0.0,
        0.0,
        0.0,
        1.0
      ],
      "name": "13de1163eda74a2d82c9cdb9b4641973.fbx"
    },
    {
      "children": [
        3,
        5
      ],
      "name": "RootNode"
    },
    {
      "children": [
        4
      ],
      "matrix": [
        100.0,
        0.0,
        0.0,
        0.0,
        -0.0,
        -1.6327772716065546e-05,
        -100.21915435790883,
        0.0,
        0.0,
        99.99999999999868,
        -1.629206793918314e-05,
        0.0,
        -80.06613159179688,
        -125.93097686767578,
        779.0665893554688,
        1.0
      ],
      "name": "Cube"
    },
    {
      "mesh": 0,
      "name": "Cube_Material_0"
    },
    {
      "children": [
        6,
        7
      ],
      "matrix": [
        -2.1593207144112178e-06,
        -49.39949798583971,
        2.944439178524064e-06,
        0.0,
        -8.048201159050193e-06,
        -2.944439282266762e-06,
        -49.39950561523363,
        0.0,
        49.39950561523367,
        -2.159321527791756e-06,
        -8.048201027423469e-06,
        0.0,
        -114.94294738769531,
        -50.03300476074219,
        778.406494140625,
        1.0
      ],
      "name": "NurbsPath"
    },
    {
      "mesh": 1,
      "name": "NurbsPath_A_0"
    },
    {
      "mesh": 2,
      "name": "NurbsPath_Material_0"
    }
  ],
  "samplers": [
    {
      "magFilter": 9729,
      "minFilter": 9987,
      "wrapS": 10497,
      "wrapT": 10497
    }
  ],
  "scene": 0,
  "scenes": [
    {
      "name": "Sketchfab_Scene",
      "nodes": [
        0
      ]
    }
  ],
  "textures": [
    {
      "sampler": 0,
      "source": 0
    },
    {
      "sampler": 0,
      "source": 1
    },
    {
      "sampler": 0,
      "source": 2
    },
    {
      "sampler": 0,
      "source": 3
    },
    {
      "sampler": 0,
      "source": 4
    },
    {
      "sampler": 0,
      "source": 5
    }
  ]
}
