{
  "accessors": [
    {
      "bufferView": 2,
      "componentType": 5126,
      "count": 2618,
      "max": [
        76.84700775146484,
        79.17550659179688,
        86.68444061279297
      ],
      "min": [
        -76.84700775146484,
        0.0,
        -86.68444061279297
      ],
      "type": "VEC3"
    },
    {
      "bufferView": 2,
      "byteOffset": 31416,
      "componentType": 5126,
      "count": 2618,
      "max": [
        0.9999977350234985,
        0.9999977350234985,
        0.9983890652656555
      ],
      "min": [
        -0.9979123473167419,
        -0.9998838305473328,
        -0.9998486638069153
      ],
      "type": "VEC3"
    },
    {
      "bufferView": 1,
      "componentType": 5126,
      "count": 2618,
      "max": [
        0.5417230129241943,
        0.9922810196876526
      ],
      "min": [
        0.002440999960526824,
        0.5027469992637634
      ],
      "type": "VEC2"
    },
    {
      "bufferView": 0,
      "componentType": 5125,
      "count": 15192,
      "type": "SCALAR"
    },
    {
      "bufferView": 2,
      "byteOffset": 62832,
      "componentType": 5126,
      "count": 3820,
      "max": [
        99.51222229003906,
        124.34598541259766,
        88.13145446777344
      ],
      "min": [
        -99.51222229003906,
        0.0,
        -88.13145446777344
      ],
      "type": "VEC3"
    },
    {
      "bufferView": 2,
      "byteOffset": 108672,
      "componentType": 5126,
      "count": 3820,
      "max": [
        0.9999405741691589,
        0.9999977350234985,
        0.9999910593032837
      ],
      "min": [
        -0.999779224395752,
        -0.9997698068618774,
        -0.9997618198394775
      ],
      "type": "VEC3"
    },
    {
      "bufferView": 1,
      "byteOffset": 20944,
      "componentType": 5126,
      "count": 3820,
      "max": [
        0.5538280010223389,
        0.5048570036888123
      ],
      "min": [
        0.002440999960526824,
        0.0024410486221313477
      ],
      "type": "VEC2"
    },
    {
      "bufferView": 0,
      "byteOffset": 60768,
      "componentType": 5125,
      "count": 22077,
      "type": "SCALAR"
    },
    {
      "bufferView": 2,
      "byteOffset": 154512,
      "componentType": 5126,
      "count": 3574,
      "max": [
        58.57095718383789,
        53.35064697265625,
        77.277587890625
      ],
      "min": [
        -58.57095718383789,
        0.0,
        -77.277587890625
      ],
      "type": "VEC3"
    },
    {
      "bufferView": 2,
      "byteOffset": 197400,
      "componentType": 5126,
      "count": 3574,
      "max": [
        0.9999977350234985,
        0.9999977350234985,
        0.9999620318412781
      ],
      "min": [
        -0.9999977350234985,
        -0.9995980262756348,
        -0.9998474717140198
      ],
      "type": "VEC3"
    },
    {
      "bufferView": 1,
      "byteOffset": 51504,
      "componentType": 5126,
      "count": 3574,
      "max": [
        0.9930520057678223,
        0.46089208126068115
      ],
      "min": [
        0.5538730025291443,
        0.025874972343444824
      ],
      "type": "VEC2"
    },
    {
      "bufferView": 0,
      "byteOffset": 149076,
      "componentType": 5125,
      "count": 20919,
      "type": "SCALAR"
    },
    {
      "bufferView": 2,
      "byteOffset": 240288,
      "componentType": 5126,
      "count": 3759,
      "max": [
        94.29596710205078,
        83.63858795166016,
        48.45635223388672
      ],
      "min": [
        -94.29596710205078,
        0.0,
        -48.45635223388672
      ],
      "type": "VEC3"
    },
    {
      "bufferView": 2,
      "byteOffset": 285396,
      "componentType": 5126,
      "count": 3759,
      "max": [
        0.999628484249115,
        0.9999977350234985,
        0.9998481869697571
      ],
      "min": [
        -0.9999505877494812,
        -0.9999696016311646,
        -0.9999621510505676
      ],
      "type": "VEC3"
    },
    {
      "bufferView": 1,
      "byteOffset": 80096,
      "componentType": 5126,
      "count": 3759,
      "max": [
        0.9932850003242493,
        0.9912310242652893
      ],
      "min": [
        0.5461369752883911,
        0.46532905101776123
      ],
      "type": "VEC2"
    },
    {
      "bufferView": 0,
      "byteOffset": 232752,
      "componentType": 5125,
      "count": 21900,
      "type": "SCALAR"
    },
    {
      "bufferView": 2,
      "byteOffset": 330504,
      "componentType": 5126,
      "count": 3848,
      "max": [
        63.126556396484375,
        230.7276611328125,
        52.56070327758789
      ],
      "min": [
        -63.126556396484375,
        0.0,
        -52.56070327758789
      ],
      "type": "VEC3"
    },
    {
      "bufferView": 2,
      "byteOffset": 376680,
      "componentType": 5126,
      "count": 3848,
      "max": [
        0.9999698400497437,
        0.9999977350234985,
        0.9999908208847046
      ],
      "min": [
        -0.9999786615371704,
        -0.9998837113380432,
        -0.9999626278877258
      ],
      "type": "VEC3"
    },
    {
      "bufferView": 1,
      "byteOffset": 110168,
      "componentType": 5126,
      "count": 3848,
      "max": [
        0.9130470156669617,
        0.6439819931983948
      ],
      "min": [
        0.1060120016336441,
        0.010930061340332031
      ],
      "type": "VEC2"
    },
    {
      "bufferView": 0,
      "byteOffset": 320352,
      "componentType": 5125,
      "count": 22200,
      "type": "SCALAR"
    },
    {
      "bufferView": 2,
      "byteOffset": 422856,
      "componentType": 5126,
      "count": 2078,
      "max": [
        82.4413070678711,
        80.54525756835938,
        65.46045684814453
      ],
      "min": [
        -82.4413070678711,
        0.0,
        -65.46045684814453
      ],
      "type": "VEC3"
    },
    {
      "bufferView": 2,
      "byteOffset": 447792,
      "componentType": 5126,
      "count": 2078,
      "max": [
        0.9999786615371704,
        0.9999977350234985,
        0.9998477101325989
      ],
      "min": [
        -0.9999786615371704,
        -0.999912440776825,
        -0.9998481869697571
      ],
      "type": "VEC3"
    },
    {
      "bufferView": 1,
      "byteOffset": 140952,
      "componentType": 5126,
      "count": 2078,
      "max": [
        0.9403970241546631,
        0.996304988861084
      ],
      "min": [
        0.5000529885292053,
        0.6318100094795227
      ],
      "type": "VEC2"
    },
    {
      "bufferView": 0,
      "byteOffset": 409152,
      "componentType": 5125,
      "count": 11892,
      "type": "SCALAR"
    },
    {
      "bufferView": 2,
      "byteOffset": 472728,
      "componentType": 5126,
      "count": 3101,
      "max": [
        45.90137481689453,
        137.31968688964844,
        46.28915023803711
      ],
      "min": [
        -45.90137481689453,
        -1.1102230246251565e-16,
        -46.28915023803711
      ],
      "type": "VEC3"
    },
    {
      "bufferView": 2,
      "byteOffset": 509940,
      "componentType": 5126,
      "count": 3101,
      "max": [
        0.9999977350234985,
        0.9960200786590576,
        0.9999147057533264
      ],
      "min": [
        -0.9998837113380432,
        -0.9902054667472839,
        -0.9999908208847046
      ],
      "type": "VEC3"
    },
    {
      "bufferView": 1,
      "byteOffset": 157576,
      "componentType": 5126,
      "count": 3101,
      "max": [
        0.47248798608779907,
        0.9976040124893188
      ],
      "min": [
        0.05309800058603287,
        0.64615398645401
      ],
      "type": "VEC2"
    },
    {
      "bufferView": 0,
      "byteOffset": 456720,
      "componentType": 5125,
      "count": 17616,
      "type": "SCALAR"
    },
    {
      "bufferView": 2,
      "byteOffset": 547152,
      "componentType": 5126,
      "count": 5009,
      "max": [
        36.282203674316406,
        137.49562072753906,
        37.746150970458984
      ],
      "min": [
        -36.282203674316406,
        5.551115123125783e-17,
        -37.746150970458984
      ],
      "type": "VEC3"
    },
    {
      "bufferView": 2,
      "byteOffset": 607260,
      "componentType": 5126,
      "count": 5009,
      "max": [
        0.9999977350234985,
        0.9999788999557495,
        0.9999147057533264
      ],
      "min": [
        -0.9999977350234985,
        -0.9999977350234985,
        -0.999990701675415
      ],
      "type": "VEC3"
    },
    {
      "bufferView": 1,
      "byteOffset": 182384,
      "componentType": 5126,
      "count": 5009,
      "max": [
        0.9988930225372314,
        0.9957720041275024
      ],
      "min": [
        0.002440999960526824,
        0.0024410486221313477
      ],
      "type": "VEC2"
    },
    {
      "bufferView": 0,
      "byteOffset": 527184,
      "componentType": 5125,
      "count": 22974,
      "type": "SCALAR"
    }
  ],
  "asset": {
    "extras": {
      "author": "Mehdi Shahsavan (https://sketchfab.com/ahmagh2e)",
      "license": "CC-BY-4.0 (http://creativecommons.org/licenses/by/4.0/)",
      "source": "https://sketchfab.com/3d-models/furniture-decor-sculpture-8mb-62e612dfc6064dc8847fe67d85a27079",
      "title": "Furniture Decor Sculpture_8MB"
    },
    "generator": "Sketchfab-16.63.0",
    "version": "2.0"
  },
  "bufferViews": [
    {
      "buffer": 0,
      "byteLength": 619080,
      "name": "floatBufferViews",
      "target": 34963
    },
    {
      "buffer": 0,
      "byteLength": 222456,
      "byteOffset": 619080,
      "byteStride": 8,
      "name": "floatBufferViews",
      "target": 34962
    },
    {
      "buffer": 0,
      "byteLength": 667368,
      "byteOffset": 841536,
      "byteStride": 12,
      "name": "floatBufferViews",
      "target": 34962
    }
  ],
  "buffers": [
    {
      "byteLength": 1508904,
      "uri": "scene.bin"
    }
  ],
  "images": [
    {
      "uri": "textures/material_baseColor.png"
    },
    {
      "uri": "textures/material_metallicRoughness.png"
    },
    {
      "uri": "textures/material_1_baseColor.png"
    },
    {
      "uri": "textures/material_1_metallicRoughness.png"
    },
    {
      "uri": "textures/material_2_baseColor.png"
    },
    {
      "uri": "textures/material_2_metallicRoughness.png"
    }
  ],
  "materials": [
    {
      "doubleSided": true,
      "name": "material",
      "pbrMetallicRoughness": {
        "baseColorTexture": {
          "index": 0
        },
        "metallicFactor": 0.0,
        "metallicRoughnessTexture": {
          "index": 1
        }
      }
    },
    {
      "doubleSided": true,
      "name": "material_1",
      "pbrMetallicRoughness": {
        "baseColorTexture": {
          "index": 2
        },
        "metallicFactor": 0.0,
        "metallicRoughnessTexture": {
          "index": 3
        }
      }
    },
    {
      "doubleSided": true,
      "name": "material_2",
      "pbrMetallicRoughness": {
        "baseColorTexture": {
          "index": 4
        },
        "metallicFactor": 0.0,
        "metallicRoughnessTexture": {
          "index": 5
        }
      }
    }
  ],
  "meshes": [
    {
      "name": "03_03_0",
      "primitives": [
        {
          "attributes": {
            "NORMAL": 1,
            "POSITION": 0,
            "TEXCOORD_0": 2
          },
          "indices": 3,
          "material": 0,
          "mode": 4
        }
      ]
    },
    {
      "name": "03_1_03_0",
      "primitives": [
        {
          "attributes": {
            "NORMAL": 5,
            "POSITION": 4,
            "TEXCOORD_0": 6
          },
          "indices": 7,
          "material": 0,
          "mode": 4
        }
      ]
    },
    {
      "name": "03_2_03_0",
      "primitives": [
        {
          "attributes": {
            "NORMAL": 9,
            "POSITION": 8,
            "TEXCOORD_0": 10
          },
          "indices": 11,
          "material": 0,
          "mode": 4
        }
      ]
    },
    {
      "name": "03_3_03_0",
      "primitives": [
        {
          "attributes": {
            "NORMAL": 13,
            "POSITION": 12,
            "TEXCOORD_0": 14
          },
          "indices": 15,
          "material": 0,
          "mode": 4
        }
      ]
    },
    {
      "name": "02_02_0",
      "primitives": [
        {
          "attributes": {
            "NORMAL": 17,
            "POSITION": 16,
            "TEXCOORD_0": 18
          },
          "indices": 19,
          "material": 1,
          "mode": 4
        }
      ]
    },
    {
      "name": "02_1_02_0",
      "primitives": [
        {
          "attributes": {
            "NORMAL": 21,
            "POSITION": 20,
            "TEXCOORD_0": 22
          },
          "indices": 23,
          "material": 1,
          "mode": 4
        }
      ]
    },
    {
      "name": "02_2_02_0",
      "primitives": [
        {
          "attributes": {
            "NORMAL": 25,
            "POSITION": 24,
            "TEXCOORD_0": 26
          },
          "indices": 27,
          "material": 1,
          "mode": 4
        }
      ]
    },
    {
      "name": "01_01_0",
      "primitives": [
        {
          "attributes": {
            "NORMAL": 29,
            "POSITION": 28,
            "TEXCOORD_0": 30
          },
          "indices": 31,
          "material": 2,
          "mode": 4
        }
      ]
    }
  ],
  "nodes": [
    {
      "children": [
        1
      ],
      "matrix": [
        1.0,
        0.0,
        0.0,
        0.0,
        0.0,
        2.220446049250313e-16,
        -1.0,
        0.0,
        0.0,
        1.0,
        2.220446049250313e-16,
        0.0,
        0.0,
        0.0,
        0.0,
        1.0
      ],
      "name": "Sketchfab_model"
    },
    {
      "children": [
        2
      ],
      "matrix": [
        0.009999999776482582,
        0.0,
        0.0,
        0.0,
        0.0,
        0.0,
        0.009999999776482582,
        0.0,
        0.0,
        -0.009999999776482582,
        0.0,
        0.0,
        0.0,
        0.0,
        0.0,
        1.0
      ],
      "name": "fcaba977a73442f2bde64a414565941c.fbx"
    },
    {
      "children": [
        3,
        5,
        7,
        9,
        11,
        13,
        15,
        17
      ],
      "name": "RootNode"
    },
    {
      "children": [
        4
      ],
      "matrix": [
        0.8370481763247176,
        -0.1261006785016106,
        -0.5323992575059604,
        0.0,
        0.1064016999824988,
        0.9920174488795211,
        -0.0676761358190675,
        0.0,
        0.5366833598615657,
        3.469446951953614e-17,
        0.84378372302842,
        0.0,
        -854.1082153320313,
        129.4755859375,
        406.31390380859375,
        1.0
      ],
      "name": "CINEMA_4D_Editor"
    },
    {
      "name": "Object_4"
    },
    {
      "children": [
        6
      ],
      "matrix": [
        1.0,
        0.0,
        0.0,
        0.0,
        0.0,
        1.0,
        0.0,
        0.0,
        0.0,
        0.0,
        1.0,
        0.0,
        -321.1454162597656,
        -0.06396704912185669,
        29.147964477539063,
        1.0
      ],
      "name": "03"
    },
    {
      "mesh": 0,
      "name": "03_03_0"
    },
    {
      "children": [
        8
      ],
      "matrix": [
        1.0,
        0.0,
        0.0,
        0.0,
        0.0,
        1.0,
        0.0,
        0.0,
        0.0,
        0.0,
        1.0,
        0.0,
        -508.03369140625,
        -0.06396704912185669,
        13.062429428100586,
        1.0
      ],
      "name": "03_1"
    },
    {
      "mesh": 1,
      "name": "03_1_03_0"
    },
    {
      "children": [
        10
      ],
      "matrix": [
        1.0,
        0.0,
        0.0,
        0.0,
        0.0,
        1.0,
        0.0,
        0.0,
        0.0,
        0.0,
        1.0,
        0.0,
        583.5709228515625,
        -0.06396704912185669,
        2.1883656978607178,
        1.0
      ],
      "name": "03_2"
    },
    {
      "mesh": 2,
      "name": "03_2_03_0"
    },
    {
      "children": [
        12
      ],
      "matrix": [
        1.0,
        0.0,
        0.0,
        0.0,
        0.0,
        1.0,
        0.0,
        0.0,
        0.0,
        0.0,
        1.0,
        0.0,
        199.9309539794922,
        -0.06396704912185669,
        34.051536560058594,
        1.0
      ],
      "name": "03_3"
    },
    {
      "mesh": 3,
      "name": "03_3_03_0"
    },
    {
      "children": [
        14
      ],
      "matrix": [
        1.0,
        0.0,
        0.0,
        0.0,
        0.0,
        1.0,
        0.0,
        0.0,
        0.0,
        0.0,
        1.0,
        0.0,
        4.370974063873291,
        -0.06396704912185669,
        -5.617275714874268,
        1.0
      ],
      "name": "02"
    },
    {
      "mesh": 4,
      "name": "02_02_0"
    },
    {
      "children": [
        16
      ],
      "matrix": [
        1.0,
        0.0,
        0.0,
        0.0,
        0.0,
        1.0,
        0.0,
        0.0,
        0.0,
        0.0,
        1.0,
        0.0,
        397.13671875,
        -0.06396704912185669,
        23.627180099487305,
        1.0
      ],
      "name": "02_1"
    },
    {
      "mesh": 5,
      "name": "02_1_02_0"
    },
    {
      "children": [
        18,
        19
      ],
      "matrix": [
        1.0,
        0.0,
        0.0,
        0.0,
        0.0,
        1.0,
        0.0,
        0.0,
        0.0,
        0.0,
        1.0,
        0.0,
        -170.24407958984375,
        0.6973041892051697,
        17.439199447631836,
        1.0
      ],
      "name": "02_2"
    },
    {
      "mesh": 6,
      "name": "02_2_02_0"
    },
    {
      "children": [
        20
      ],
      "matrix": [
        1.0,
        0.0,
        0.0,
        0.0,
        0.0,
        1.0,
        0.0,
        0.0,
        0.0,
        0.0,
        1.0,
        0.0,
        1.855987310409546,
        -0.7612712383270264,
        3.8233141899108887,
        1.0
      ],
      "name": "01"
    },
    {
      "mesh": 7,
      "name": "01_01_0"
    }
  ],
  "samplers": [
    {
      "magFilter": 9729,
      "minFilter": 9987,
      "wrapS": 10497,
      "wrapT": 10497
    }
  ],
  "scene": 0,
  "scenes": [
    {
      "name": "Sketchfab_Scene",
      "nodes": [
        0
      ]
    }
  ],
  "textures": [
    {
      "sampler": 0,
      "source": 0
    },
    {
      "sampler": 0,
      "source": 1
    },
    {
      "sampler": 0,
      "source": 2
    },
    {
      "sampler": 0,
      "source": 3
    },
    {
      "sampler": 0,
      "source": 4
    },
    {
      "sampler": 0,
      "source": 5
    }
  ]
}
